<?xml version="1.0" encoding="utf-8"?>
<!-- Svg Vector Icons : http://www.onlinewebfonts.com/icon -->
<!DOCTYPE svg PUBLIC "-//W3C//DTD SVG 1.1//EN" "http://www.w3.org/Graphics/SVG/1.1/DTD/svg11.dtd">
<svg version="1.1" xmlns="http://www.w3.org/2000/svg" xmlns:xlink="http://www.w3.org/1999/xlink" x="0px" y="0px" viewBox="0 0 1000 1000" enable-background="new 0 0 1000 1000" xml:space="preserve">
<metadata> Svg Vector Icons : http://www.onlinewebfonts.com/icon </metadata>
<g><path fill="#f0f0f0" d="M295.6,459.2C211.1,589.8,91.7,788.3,91.7,867.5C91.7,990,214.2,990,214.2,990H500h0h285.8c0,0,122.5,0,122.5-122.5c0-79.2-119.4-277.7-203.9-408.3H295.6z M622.5,336.7V50.8h40.8V10h-40.8l0,0H500h0H377.5l0,0h-40.9v40.8h40.9v285.8c0,0-285.8,408.3-285.8,530.8C91.7,990,214.2,990,214.2,990H500h0h285.8c0,0,122.5,0,122.5-122.5C908.3,745,622.5,336.7,622.5,336.7z M785.8,949.2H500H214.2c-13.6,0-81.7-4-81.7-81.7c0-79.8,170.8-353.6,278.4-507.4l7.4-10.6v-12.8V50.8h163.3v285.8v12.8l7.4,10.6c107.7,153.8,278.5,427.6,278.5,507.4C867.5,942.1,804.8,948.8,785.8,949.2z M377.5,785.8c0,22.5-18.3,40.8-40.8,40.8c-22.5,0-40.8-18.3-40.8-40.8s18.3-40.8,40.8-40.8C359.2,745,377.5,763.3,377.5,785.8z M540.8,622.5c0,45.1-36.6,81.7-81.7,81.7c-45.1,0-81.7-36.6-81.7-81.7c0-45.1,36.6-81.7,81.7-81.7C504.2,540.8,540.8,577.4,540.8,622.5z M704.2,785.8c0,45.1-36.6,81.7-81.7,81.7c-45.1,0-81.7-36.6-81.7-81.7c0-45.1,36.6-81.7,81.7-81.7C667.6,704.2,704.2,740.7,704.2,785.8z"/></g>
</svg>